# Wavefront OBJ file automatically generated by Tiled2Unity

# Vertices (Count = 144)
v -0.8 -3.2 0
v -1.6 -3.2 0
v -1.6 -2.4 0
v -0.8 -2.4 0
v -2.4 -3.2 0
v -2.4 -2.4 0
v -3.2 -3.2 0
v -3.2 -2.4 0
v -4 -3.2 0
v -4 -2.4 0
v -4.8 -3.2 0
v -4.8 -2.4 0
v -5.6 -3.2 0
v -5.6 -2.4 0
v -6.4 -3.2 0
v -6.4 -2.4 0
v -7.2 -3.2 0
v -7.2 -2.4 0
v -8 -3.2 0
v -8 -2.4 0
v -0.8 -4 0
v -1.6 -4 0
v -2.4 -4 0
v -3.2 -4 0
v -4 -4 0
v -4.8 -4 0
v -5.6 -4 0
v -6.4 -4 0
v -7.2 -4 0
v -8 -4 0
v -0.8 -4.8 0
v -1.6 -4.8 0
v -2.4 -4.8 0
v -3.2 -4.8 0
v -4 -4.8 0
v -4.8 -4.8 0
v -5.6 -4.8 0
v -6.4 -4.8 0
v -7.2 -4.8 0
v -8 -4.8 0
v -0.8 -5.6 0
v -1.6 -5.6 0
v -2.4 -5.6 0
v -3.2 -5.6 0
v -4 -5.6 0
v -4.8 -5.6 0
v -5.6 -5.6 0
v -6.4 -5.6 0
v -7.2 -5.6 0
v -8 -5.6 0
v -0.8 -6.4 0
v -1.6 -6.4 0
v -2.4 -6.4 0
v -3.2 -6.4 0
v -4 -6.4 0
v -4.8 -6.4 0
v -5.6 -6.4 0
v -6.4 -6.4 0
v -7.2 -6.4 0
v -8 -6.4 0
v -4 -7.2 0
v -4.8 -7.2 0
v -4 -8 0
v -4.8 -8 0
v -4 -8.8 0
v -4.8 -8.8 0
v 0 -0.8 0
v -0.8 -0.8 0
v -0.8 0 0
v 0 0 0
v -1.6 -0.8 0
v -1.6 0 0
v -2.4 -0.8 0
v -2.4 0 0
v -3.2 -0.8 0
v -3.2 0 0
v -4 -0.8 0
v -4 0 0
v -4.8 -0.8 0
v -4.8 0 0
v -5.6 -0.8 0
v -5.6 0 0
v -6.4 -0.8 0
v -6.4 0 0
v -7.2 -0.8 0
v -7.2 0 0
v -8 -0.8 0
v -8 0 0
v -8.8 -0.8 0
v -8.8 0 0
v 0 -1.6 0
v -0.8 -1.6 0
v -1.6 -1.6 0
v -2.4 -1.6 0
v -3.2 -1.6 0
v -4 -1.6 0
v -4.8 -1.6 0
v -5.6 -1.6 0
v -6.4 -1.6 0
v -7.2 -1.6 0
v -8 -1.6 0
v -8.8 -1.6 0
v 0 -2.4 0
v -8.8 -2.4 0
v 0 -3.2 0
v -8.8 -3.2 0
v 0 -4 0
v -8.8 -4 0
v 0 -4.8 0
v -8.8 -4.8 0
v 0 -5.6 0
v -8.8 -5.6 0
v 0 -6.4 0
v -8.8 -6.4 0
v 0 -7.2 0
v -0.8 -7.2 0
v -1.6 -7.2 0
v -2.4 -7.2 0
v -3.2 -7.2 0
v -5.6 -7.2 0
v -6.4 -7.2 0
v -7.2 -7.2 0
v -8 -7.2 0
v -8.8 -7.2 0
v 0 -8 0
v -0.8 -8 0
v -1.6 -8 0
v -2.4 -8 0
v -3.2 -8 0
v -5.6 -8 0
v -6.4 -8 0
v -7.2 -8 0
v -8 -8 0
v -8.8 -8 0
v 0 -8.8 0
v -0.8 -8.8 0
v -1.6 -8.8 0
v -2.4 -8.8 0
v -3.2 -8.8 0
v -5.6 -8.8 0
v -6.4 -8.8 0
v -7.2 -8.8 0
v -8 -8.8 0
v -8.8 -8.8 0

# Texture cooridinates (Count = 44)
vt 0.1625424 0.2864379
vt 0.187776 0.2864379
vt 0.187776 0.3198779
vt 0.1625424 0.3198779
vt 0.2166826 0.9664379
vt 0.2419161 0.9664379
vt 0.2419161 0.9998779
vt 0.2166826 0.9998779
vt 0.2708227 0.8948589
vt 0.2960563 0.8948589
vt 0.2960563 0.928299
vt 0.2708227 0.928299
vt 0.3520329 0.8948589
vt 0.3772665 0.8948589
vt 0.3772665 0.928299
vt 0.3520329 0.928299
vt 0.2978928 0.8590695
vt 0.3231263 0.8590695
vt 0.3231263 0.8925095
vt 0.2978928 0.8925095
vt 0.2708227 0.7874905
vt 0.2960563 0.7874905
vt 0.2960563 0.8209305
vt 0.2708227 0.8209305
vt 0.2708227 0.6801221
vt 0.2960563 0.6801221
vt 0.2960563 0.7135621
vt 0.2708227 0.7135621
vt 0.2166826 0.9306484
vt 0.2419161 0.9306484
vt 0.2419161 0.9640884
vt 0.2166826 0.9640884
vt 0.2978928 0.8948589
vt 0.3231263 0.8948589
vt 0.3231263 0.928299
vt 0.2978928 0.928299
vt 0.2437526 0.8948589
vt 0.2689862 0.8948589
vt 0.2689862 0.928299
vt 0.2437526 0.928299
vt 0.2437526 0.9306484
vt 0.2689862 0.9306484
vt 0.2689862 0.9640884
vt 0.2437526 0.9640884

# Normal
vn 0 0 -1

# Groups (Count = 2)

g mesh_0001
f 1/1/1 2/2/1 3/3/1 4/4/1
f 2/1/1 5/2/1 6/3/1 3/4/1
f 5/1/1 7/2/1 8/3/1 6/4/1
f 7/1/1 9/2/1 10/3/1 8/4/1
f 9/1/1 11/2/1 12/3/1 10/4/1
f 11/1/1 13/2/1 14/3/1 12/4/1
f 13/1/1 15/2/1 16/3/1 14/4/1
f 15/1/1 17/2/1 18/3/1 16/4/1
f 17/1/1 19/2/1 20/3/1 18/4/1
f 21/1/1 22/2/1 2/3/1 1/4/1
f 22/1/1 23/2/1 5/3/1 2/4/1
f 23/1/1 24/2/1 7/3/1 5/4/1
f 24/1/1 25/2/1 9/3/1 7/4/1
f 25/1/1 26/2/1 11/3/1 9/4/1
f 26/1/1 27/2/1 13/3/1 11/4/1
f 27/1/1 28/2/1 15/3/1 13/4/1
f 28/1/1 29/2/1 17/3/1 15/4/1
f 29/1/1 30/2/1 19/3/1 17/4/1
f 31/1/1 32/2/1 22/3/1 21/4/1
f 32/1/1 33/2/1 23/3/1 22/4/1
f 33/1/1 34/2/1 24/3/1 23/4/1
f 34/1/1 35/2/1 25/3/1 24/4/1
f 35/1/1 36/2/1 26/3/1 25/4/1
f 36/1/1 37/2/1 27/3/1 26/4/1
f 37/1/1 38/2/1 28/3/1 27/4/1
f 38/1/1 39/2/1 29/3/1 28/4/1
f 39/1/1 40/2/1 30/3/1 29/4/1
f 41/1/1 42/2/1 32/3/1 31/4/1
f 42/1/1 43/2/1 33/3/1 32/4/1
f 43/1/1 44/2/1 34/3/1 33/4/1
f 44/1/1 45/2/1 35/3/1 34/4/1
f 45/1/1 46/2/1 36/3/1 35/4/1
f 46/1/1 47/2/1 37/3/1 36/4/1
f 47/1/1 48/2/1 38/3/1 37/4/1
f 48/1/1 49/2/1 39/3/1 38/4/1
f 49/1/1 50/2/1 40/3/1 39/4/1
f 51/1/1 52/2/1 42/3/1 41/4/1
f 52/1/1 53/2/1 43/3/1 42/4/1
f 53/1/1 54/2/1 44/3/1 43/4/1
f 54/1/1 55/2/1 45/3/1 44/4/1
f 55/1/1 56/2/1 46/3/1 45/4/1
f 56/1/1 57/2/1 47/3/1 46/4/1
f 57/1/1 58/2/1 48/3/1 47/4/1
f 58/1/1 59/2/1 49/3/1 48/4/1
f 59/1/1 60/2/1 50/3/1 49/4/1
f 61/1/1 62/2/1 56/3/1 55/4/1
f 63/1/1 64/2/1 62/3/1 61/4/1
f 65/1/1 66/2/1 64/3/1 63/4/1

g mesh_0002
f 67/5/1 68/6/1 69/7/1 70/8/1
f 68/9/1 71/10/1 72/11/1 69/12/1
f 71/9/1 73/10/1 74/11/1 72/12/1
f 73/9/1 75/10/1 76/11/1 74/12/1
f 75/9/1 77/10/1 78/11/1 76/12/1
f 77/9/1 79/10/1 80/11/1 78/12/1
f 79/9/1 81/10/1 82/11/1 80/12/1
f 81/9/1 83/10/1 84/11/1 82/12/1
f 83/9/1 85/10/1 86/11/1 84/12/1
f 85/9/1 87/10/1 88/11/1 86/12/1
f 87/13/1 89/14/1 90/15/1 88/16/1
f 91/17/1 92/18/1 68/19/1 67/20/1
f 92/21/1 93/22/1 71/23/1 68/24/1
f 93/21/1 94/22/1 73/23/1 71/24/1
f 94/21/1 95/22/1 75/23/1 73/24/1
f 95/21/1 96/22/1 77/23/1 75/24/1
f 96/21/1 97/22/1 79/23/1 77/24/1
f 97/21/1 98/22/1 81/23/1 79/24/1
f 98/21/1 99/22/1 83/23/1 81/24/1
f 99/21/1 100/22/1 85/23/1 83/24/1
f 100/21/1 101/22/1 87/23/1 85/24/1
f 101/17/1 102/18/1 89/19/1 87/20/1
f 103/17/1 4/18/1 92/19/1 91/20/1
f 4/25/1 3/26/1 93/27/1 92/28/1
f 3/25/1 6/26/1 94/27/1 93/28/1
f 6/25/1 8/26/1 95/27/1 94/28/1
f 8/25/1 10/26/1 96/27/1 95/28/1
f 10/25/1 12/26/1 97/27/1 96/28/1
f 12/25/1 14/26/1 98/27/1 97/28/1
f 14/25/1 16/26/1 99/27/1 98/28/1
f 16/25/1 18/26/1 100/27/1 99/28/1
f 18/25/1 20/26/1 101/27/1 100/28/1
f 20/17/1 104/18/1 102/19/1 101/20/1
f 105/17/1 1/18/1 4/19/1 103/20/1
f 19/17/1 106/18/1 104/19/1 20/20/1
f 107/17/1 21/18/1 1/19/1 105/20/1
f 30/17/1 108/18/1 106/19/1 19/20/1
f 109/17/1 31/18/1 21/19/1 107/20/1
f 40/17/1 110/18/1 108/19/1 30/20/1
f 111/17/1 41/18/1 31/19/1 109/20/1
f 50/17/1 112/18/1 110/19/1 40/20/1
f 113/17/1 51/18/1 41/19/1 111/20/1
f 60/17/1 114/18/1 112/19/1 50/20/1
f 115/29/1 116/30/1 51/31/1 113/32/1
f 116/9/1 117/10/1 52/11/1 51/12/1
f 117/9/1 118/10/1 53/11/1 52/12/1
f 118/9/1 119/10/1 54/11/1 53/12/1
f 119/33/1 61/34/1 55/35/1 54/36/1
f 62/37/1 120/38/1 57/39/1 56/40/1
f 120/9/1 121/10/1 58/11/1 57/12/1
f 121/9/1 122/10/1 59/11/1 58/12/1
f 122/9/1 123/10/1 60/11/1 59/12/1
f 123/41/1 124/42/1 114/43/1 60/44/1
f 125/21/1 126/22/1 116/23/1 115/24/1
f 126/21/1 127/22/1 117/23/1 116/24/1
f 127/21/1 128/22/1 118/23/1 117/24/1
f 128/21/1 129/22/1 119/23/1 118/24/1
f 129/21/1 63/22/1 61/23/1 119/24/1
f 64/21/1 130/22/1 120/23/1 62/24/1
f 130/21/1 131/22/1 121/23/1 120/24/1
f 131/21/1 132/22/1 122/23/1 121/24/1
f 132/21/1 133/22/1 123/23/1 122/24/1
f 133/21/1 134/22/1 124/23/1 123/24/1
f 135/25/1 136/26/1 126/27/1 125/28/1
f 136/25/1 137/26/1 127/27/1 126/28/1
f 137/25/1 138/26/1 128/27/1 127/28/1
f 138/25/1 139/26/1 129/27/1 128/28/1
f 139/25/1 65/26/1 63/27/1 129/28/1
f 66/25/1 140/26/1 130/27/1 64/28/1
f 140/25/1 141/26/1 131/27/1 130/28/1
f 141/25/1 142/26/1 132/27/1 131/28/1
f 142/25/1 143/26/1 133/27/1 132/28/1
f 143/25/1 144/26/1 134/27/1 133/28/1

